<?xml version="1.0" encoding="UTF-8" standalone="no"?>
<!DOCTYPE svg PUBLIC "-//W3C//DTD SVG 1.1//EN"
 "http://www.w3.org/Graphics/SVG/1.1/DTD/svg11.dtd">
<!-- Generated by graphviz version 13.1.0 (20250701.0955)
 -->
<!-- Title: src/driver_lan8720.h Pages: 1 -->
<svg width="386pt" height="232pt"
 viewBox="0.00 0.00 386.00 232.00" xmlns="http://www.w3.org/2000/svg" xmlns:xlink="http://www.w3.org/1999/xlink">
<g id="graph0" class="graph" transform="scale(1 1) rotate(0) translate(4 228)">
<title>src/driver_lan8720.h</title>
<!-- Node1 -->
<g id="Node000001" class="node">
<title>Node1</title>
<g id="a_Node000001"><a xlink:title="driver lan8720 header file">
<polygon fill="#999999" stroke="#666666" points="313.25,-224 209.5,-224 209.5,-204 313.25,-204 313.25,-224"/>
<text xml:space="preserve" text-anchor="middle" x="261.38" y="-210.5" font-family="Helvetica,sans-Serif" font-size="10.00">src/driver_lan8720.h</text>
</a>
</g>
</g>
<!-- Node2 -->
<g id="Node000002" class="node">
<title>Node2</title>
<g id="a_Node000002"><a xlink:href="driver__lan8720__interface_8h.html" target="_top" xlink:title="driver lan8720 interface header file">
<polygon fill="white" stroke="#666666" points="256.12,-168 136.62,-168 136.62,-136 256.12,-136 256.12,-168"/>
<text xml:space="preserve" text-anchor="start" x="144.62" y="-154.5" font-family="Helvetica,sans-Serif" font-size="10.00">interface/driver_lan8720</text>
<text xml:space="preserve" text-anchor="middle" x="196.38" y="-142.5" font-family="Helvetica,sans-Serif" font-size="10.00">_interface.h</text>
</a>
</g>
</g>
<!-- Node1&#45;&gt;Node2 -->
<g id="edge1_Node000001_Node000002" class="edge">
<title>Node1&#45;&gt;Node2</title>
<g id="a_edge1_Node000001_Node000002"><a xlink:title=" ">
<path fill="none" stroke="#63b8ff" d="M242.93,-195.98C233.52,-187.29 222.17,-176.81 213.03,-168.37"/>
<polygon fill="#63b8ff" stroke="#63b8ff" points="240.38,-198.39 250.11,-202.6 245.13,-193.24 240.38,-198.39"/>
</a>
</g>
</g>
<!-- Node8 -->
<g id="Node000008" class="node">
<title>Node8</title>
<g id="a_Node000008"><a xlink:href="driver__lan8720_8c.html" target="_top" xlink:title="driver lan8720 source file">
<polygon fill="white" stroke="#666666" points="378.25,-162 274.5,-162 274.5,-142 378.25,-142 378.25,-162"/>
<text xml:space="preserve" text-anchor="middle" x="326.38" y="-148.5" font-family="Helvetica,sans-Serif" font-size="10.00">src/driver_lan8720.c</text>
</a>
</g>
</g>
<!-- Node1&#45;&gt;Node8 -->
<g id="edge7_Node000001_Node000008" class="edge">
<title>Node1&#45;&gt;Node8</title>
<g id="a_edge7_Node000001_Node000008"><a xlink:title=" ">
<path fill="none" stroke="#63b8ff" d="M279.9,-195.9C291.81,-184.91 306.82,-171.05 316.5,-162.11"/>
<polygon fill="#63b8ff" stroke="#63b8ff" points="277.62,-193.24 272.64,-202.6 282.37,-198.39 277.62,-193.24"/>
</a>
</g>
</g>
<!-- Node3 -->
<g id="Node000003" class="node">
<title>Node3</title>
<g id="a_Node000003"><a xlink:href="driver__lan8720__basic_8h.html" target="_top" xlink:title="driver lan8720 basic header file">
<polygon fill="white" stroke="#666666" points="118.75,-100 0,-100 0,-68 118.75,-68 118.75,-100"/>
<text xml:space="preserve" text-anchor="start" x="8" y="-86.5" font-family="Helvetica,sans-Serif" font-size="10.00">example/driver_lan8720</text>
<text xml:space="preserve" text-anchor="middle" x="59.38" y="-74.5" font-family="Helvetica,sans-Serif" font-size="10.00">_basic.h</text>
</a>
</g>
</g>
<!-- Node2&#45;&gt;Node3 -->
<g id="edge2_Node000002_Node000003" class="edge">
<title>Node2&#45;&gt;Node3</title>
<g id="a_edge2_Node000002_Node000003"><a xlink:title=" ">
<path fill="none" stroke="#63b8ff" d="M154.04,-130.61C133.81,-120.86 109.98,-109.38 91.29,-100.38"/>
<polygon fill="#63b8ff" stroke="#63b8ff" points="152.36,-133.68 162.89,-134.87 155.4,-127.38 152.36,-133.68"/>
</a>
</g>
</g>
<!-- Node5 -->
<g id="Node000005" class="node">
<title>Node5</title>
<g id="a_Node000005"><a xlink:href="driver__lan8720__interface__template_8c.html" target="_top" xlink:title="driver lan8720 interface template source file">
<polygon fill="white" stroke="#666666" points="256.12,-100 136.62,-100 136.62,-68 256.12,-68 256.12,-100"/>
<text xml:space="preserve" text-anchor="start" x="144.62" y="-86.5" font-family="Helvetica,sans-Serif" font-size="10.00">interface/driver_lan8720</text>
<text xml:space="preserve" text-anchor="middle" x="196.38" y="-74.5" font-family="Helvetica,sans-Serif" font-size="10.00">_interface_template.c</text>
</a>
</g>
</g>
<!-- Node2&#45;&gt;Node5 -->
<g id="edge4_Node000002_Node000005" class="edge">
<title>Node2&#45;&gt;Node5</title>
<g id="a_edge4_Node000002_Node000005"><a xlink:title=" ">
<path fill="none" stroke="#63b8ff" d="M196.38,-124.31C196.38,-116.12 196.38,-107.38 196.38,-100.22"/>
<polygon fill="#63b8ff" stroke="#63b8ff" points="192.88,-124.18 196.38,-134.18 199.88,-124.18 192.88,-124.18"/>
</a>
</g>
</g>
<!-- Node6 -->
<g id="Node000006" class="node">
<title>Node6</title>
<g id="a_Node000006"><a xlink:href="driver__lan8720__register__test_8h.html" target="_top" xlink:title="driver lan8720 register test header file">
<polygon fill="white" stroke="#666666" points="372.62,-100 274.12,-100 274.12,-68 372.62,-68 372.62,-100"/>
<text xml:space="preserve" text-anchor="start" x="282.12" y="-86.5" font-family="Helvetica,sans-Serif" font-size="10.00">test/driver_lan8720</text>
<text xml:space="preserve" text-anchor="middle" x="323.38" y="-74.5" font-family="Helvetica,sans-Serif" font-size="10.00">_register_test.h</text>
</a>
</g>
</g>
<!-- Node2&#45;&gt;Node6 -->
<g id="edge5_Node000002_Node000006" class="edge">
<title>Node2&#45;&gt;Node6</title>
<g id="a_edge5_Node000002_Node000006"><a xlink:title=" ">
<path fill="none" stroke="#63b8ff" d="M236.13,-130.34C254.78,-120.65 276.62,-109.3 293.79,-100.38"/>
<polygon fill="#63b8ff" stroke="#63b8ff" points="234.75,-127.11 227.49,-134.83 237.98,-133.32 234.75,-127.11"/>
</a>
</g>
</g>
<!-- Node4 -->
<g id="Node000004" class="node">
<title>Node4</title>
<g id="a_Node000004"><a xlink:href="driver__lan8720__basic_8c.html" target="_top" xlink:title="driver lan8720 basic source file">
<polygon fill="white" stroke="#666666" points="118.75,-32 0,-32 0,0 118.75,0 118.75,-32"/>
<text xml:space="preserve" text-anchor="start" x="8" y="-18.5" font-family="Helvetica,sans-Serif" font-size="10.00">example/driver_lan8720</text>
<text xml:space="preserve" text-anchor="middle" x="59.38" y="-6.5" font-family="Helvetica,sans-Serif" font-size="10.00">_basic.c</text>
</a>
</g>
</g>
<!-- Node3&#45;&gt;Node4 -->
<g id="edge3_Node000003_Node000004" class="edge">
<title>Node3&#45;&gt;Node4</title>
<g id="a_edge3_Node000003_Node000004"><a xlink:title=" ">
<path fill="none" stroke="#63b8ff" d="M59.38,-56.31C59.38,-48.12 59.38,-39.38 59.38,-32.22"/>
<polygon fill="#63b8ff" stroke="#63b8ff" points="55.88,-56.18 59.38,-66.18 62.88,-56.18 55.88,-56.18"/>
</a>
</g>
</g>
<!-- Node7 -->
<g id="Node000007" class="node">
<title>Node7</title>
<g id="a_Node000007"><a xlink:href="driver__lan8720__register__test_8c.html" target="_top" xlink:title="driver lan8720 register test source file">
<polygon fill="white" stroke="#666666" points="372.62,-32 274.12,-32 274.12,0 372.62,0 372.62,-32"/>
<text xml:space="preserve" text-anchor="start" x="282.12" y="-18.5" font-family="Helvetica,sans-Serif" font-size="10.00">test/driver_lan8720</text>
<text xml:space="preserve" text-anchor="middle" x="323.38" y="-6.5" font-family="Helvetica,sans-Serif" font-size="10.00">_register_test.c</text>
</a>
</g>
</g>
<!-- Node6&#45;&gt;Node7 -->
<g id="edge6_Node000006_Node000007" class="edge">
<title>Node6&#45;&gt;Node7</title>
<g id="a_edge6_Node000006_Node000007"><a xlink:title=" ">
<path fill="none" stroke="#63b8ff" d="M323.38,-56.31C323.38,-48.12 323.38,-39.38 323.38,-32.22"/>
<polygon fill="#63b8ff" stroke="#63b8ff" points="319.88,-56.18 323.38,-66.18 326.88,-56.18 319.88,-56.18"/>
</a>
</g>
</g>
</g>
</svg>
