<?xml version="1.0" encoding="UTF-8" standalone="no"?>
<!DOCTYPE svg PUBLIC "-//W3C//DTD SVG 1.1//EN"
 "http://www.w3.org/Graphics/SVG/1.1/DTD/svg11.dtd">
<!-- Generated by graphviz version 13.1.0 (20250701.0955)
 -->
<!-- Title: lan8720_basic_init Pages: 1 -->
<svg width="285pt" height="846pt"
 viewBox="0.00 0.00 285.00 846.00" xmlns="http://www.w3.org/2000/svg" xmlns:xlink="http://www.w3.org/1999/xlink">
<g id="graph0" class="graph" transform="scale(1 1) rotate(0) translate(4 842)">
<title>lan8720_basic_init</title>
<!-- Node1 -->
<g id="Node000001" class="node">
<title>Node1</title>
<g id="a_Node000001"><a xlink:title="basic example init">
<polygon fill="#999999" stroke="#666666" points="96.25,-414 0,-414 0,-394 96.25,-394 96.25,-414"/>
<text xml:space="preserve" text-anchor="middle" x="48.12" y="-400.5" font-family="Helvetica,sans-Serif" font-size="10.00">lan8720_basic_init</text>
</a>
</g>
</g>
<!-- Node2 -->
<g id="Node000002" class="node">
<title>Node2</title>
<g id="a_Node000002"><a xlink:href="group__lan8720__base__driver.html#ga588484a8f31417b32bee8ea8b4d18422" target="_top" xlink:title="close the chip">
<polygon fill="white" stroke="#666666" points="243.88,-838 165.62,-838 165.62,-818 243.88,-818 243.88,-838"/>
<text xml:space="preserve" text-anchor="middle" x="204.75" y="-824.5" font-family="Helvetica,sans-Serif" font-size="10.00">lan8720_deinit</text>
</a>
</g>
</g>
<!-- Node1&#45;&gt;Node2 -->
<g id="edge1_Node000001_Node000002" class="edge">
<title>Node1&#45;&gt;Node2</title>
<g id="a_edge1_Node000001_Node000002"><a xlink:title=" ">
<path fill="none" stroke="#63b8ff" d="M49.79,-414.2C53.74,-471.11 75.7,-749.11 132.25,-809 138.2,-815.3 145.97,-819.6 154.2,-822.51"/>
<polygon fill="#63b8ff" stroke="#63b8ff" points="153.13,-825.85 163.71,-825.19 155.03,-819.11 153.13,-825.85"/>
</a>
</g>
</g>
<!-- Node3 -->
<g id="Node000003" class="node">
<title>Node3</title>
<g id="a_Node000003"><a xlink:href="group__lan8720__base__driver.html#ga48848d42ca04a7dc84fd8e19bceb677d" target="_top" xlink:title="initialize the chip">
<polygon fill="white" stroke="#666666" points="238.62,-800 170.88,-800 170.88,-780 238.62,-780 238.62,-800"/>
<text xml:space="preserve" text-anchor="middle" x="204.75" y="-786.5" font-family="Helvetica,sans-Serif" font-size="10.00">lan8720_init</text>
</a>
</g>
</g>
<!-- Node1&#45;&gt;Node3 -->
<g id="edge2_Node000001_Node000003" class="edge">
<title>Node1&#45;&gt;Node3</title>
<g id="a_edge2_Node000001_Node000003"><a xlink:title=" ">
<path fill="none" stroke="#63b8ff" d="M50.04,-414.29C55.01,-468.16 80.57,-717.37 132.25,-771 139.52,-778.54 149.4,-783.2 159.51,-786.06"/>
<polygon fill="#63b8ff" stroke="#63b8ff" points="158.44,-789.41 168.96,-788.17 159.97,-782.58 158.44,-789.41"/>
</a>
</g>
</g>
<!-- Node4 -->
<g id="Node000004" class="node">
<title>Node4</title>
<g id="a_Node000004"><a xlink:href="group__lan8720__interface__driver.html#ga1ee5b959ef53c18895545513b5fdfd0b" target="_top" xlink:title="interface print format data">
<polygon fill="white" stroke="#666666" points="266.75,-762 142.75,-762 142.75,-730 266.75,-730 266.75,-762"/>
<text xml:space="preserve" text-anchor="start" x="150.75" y="-748.5" font-family="Helvetica,sans-Serif" font-size="10.00">lan8720_interface_debug</text>
<text xml:space="preserve" text-anchor="middle" x="204.75" y="-736.5" font-family="Helvetica,sans-Serif" font-size="10.00">_print</text>
</a>
</g>
</g>
<!-- Node1&#45;&gt;Node4 -->
<g id="edge3_Node000001_Node000004" class="edge">
<title>Node1&#45;&gt;Node4</title>
<g id="a_edge3_Node000001_Node000004"><a xlink:title=" ">
<path fill="none" stroke="#63b8ff" d="M48.6,-414.38C46.98,-457.96 46.58,-628.19 132.25,-721 132.72,-721.51 133.21,-722.02 133.7,-722.51"/>
<polygon fill="#63b8ff" stroke="#63b8ff" points="131.38,-725.13 141.36,-728.67 135.76,-719.67 131.38,-725.13"/>
</a>
</g>
</g>
<!-- Node5 -->
<g id="Node000005" class="node">
<title>Node5</title>
<g id="a_Node000005"><a xlink:href="group__lan8720__interface__driver.html#ga957fd18955787b963cf84b1d13ecdb23" target="_top" xlink:title="interface delay ms">
<polygon fill="white" stroke="#666666" points="274.62,-712 134.88,-712 134.88,-692 274.62,-692 274.62,-712"/>
<text xml:space="preserve" text-anchor="middle" x="204.75" y="-698.5" font-family="Helvetica,sans-Serif" font-size="10.00">lan8720_interface_delay_ms</text>
</a>
</g>
</g>
<!-- Node1&#45;&gt;Node5 -->
<g id="edge4_Node000001_Node000005" class="edge">
<title>Node1&#45;&gt;Node5</title>
<g id="a_edge4_Node000001_Node000005"><a xlink:title=" ">
<path fill="none" stroke="#63b8ff" d="M48.86,-414.41C48.42,-455.17 52.46,-605.56 132.25,-683 133.02,-683.74 133.81,-684.46 134.62,-685.15"/>
<polygon fill="#63b8ff" stroke="#63b8ff" points="132.62,-688.02 142.87,-690.68 136.52,-682.2 132.62,-688.02"/>
</a>
</g>
</g>
<!-- Node6 -->
<g id="Node000006" class="node">
<title>Node6</title>
<g id="a_Node000006"><a xlink:href="group__lan8720__interface__driver.html#ga04d0b3a28f26d9ebf7807ef1c6d03783" target="_top" xlink:title="interface reset gpio deinit">
<polygon fill="white" stroke="#666666" points="264.5,-674 145,-674 145,-642 264.5,-642 264.5,-674"/>
<text xml:space="preserve" text-anchor="start" x="153" y="-660.5" font-family="Helvetica,sans-Serif" font-size="10.00">lan8720_interface_reset</text>
<text xml:space="preserve" text-anchor="middle" x="204.75" y="-648.5" font-family="Helvetica,sans-Serif" font-size="10.00">_gpio_deinit</text>
</a>
</g>
</g>
<!-- Node1&#45;&gt;Node6 -->
<g id="edge5_Node000001_Node000006" class="edge">
<title>Node1&#45;&gt;Node6</title>
<g id="a_edge5_Node000001_Node000006"><a xlink:title=" ">
<path fill="none" stroke="#63b8ff" d="M49.82,-414.32C52.77,-449.9 67.27,-568.78 132.25,-633 133.28,-634.01 134.35,-634.99 135.45,-635.92"/>
<polygon fill="#63b8ff" stroke="#63b8ff" points="133.15,-638.58 143.35,-641.46 137.18,-632.85 133.15,-638.58"/>
</a>
</g>
</g>
<!-- Node7 -->
<g id="Node000007" class="node">
<title>Node7</title>
<g id="a_Node000007"><a xlink:href="group__lan8720__interface__driver.html#gac6f509a454f0cb5d58d9172d0a9ed461" target="_top" xlink:title="interface reset gpio init">
<polygon fill="white" stroke="#666666" points="264.5,-624 145,-624 145,-592 264.5,-592 264.5,-624"/>
<text xml:space="preserve" text-anchor="start" x="153" y="-610.5" font-family="Helvetica,sans-Serif" font-size="10.00">lan8720_interface_reset</text>
<text xml:space="preserve" text-anchor="middle" x="204.75" y="-598.5" font-family="Helvetica,sans-Serif" font-size="10.00">_gpio_init</text>
</a>
</g>
</g>
<!-- Node1&#45;&gt;Node7 -->
<g id="edge6_Node000001_Node000007" class="edge">
<title>Node1&#45;&gt;Node7</title>
<g id="a_edge6_Node000001_Node000007"><a xlink:title=" ">
<path fill="none" stroke="#63b8ff" d="M50.96,-414.15C56.95,-444.33 78.68,-534.45 132.25,-583 133.18,-583.84 134.13,-584.65 135.11,-585.43"/>
<polygon fill="#63b8ff" stroke="#63b8ff" points="133.06,-588.27 143.31,-590.94 136.96,-582.46 133.06,-588.27"/>
</a>
</g>
</g>
<!-- Node8 -->
<g id="Node000008" class="node">
<title>Node8</title>
<g id="a_Node000008"><a xlink:href="group__lan8720__interface__driver.html#ga1a6eea24de9c5d54c14f990c682f910d" target="_top" xlink:title="interface reset gpio write">
<polygon fill="white" stroke="#666666" points="264.5,-574 145,-574 145,-542 264.5,-542 264.5,-574"/>
<text xml:space="preserve" text-anchor="start" x="153" y="-560.5" font-family="Helvetica,sans-Serif" font-size="10.00">lan8720_interface_reset</text>
<text xml:space="preserve" text-anchor="middle" x="204.75" y="-548.5" font-family="Helvetica,sans-Serif" font-size="10.00">_gpio_write</text>
</a>
</g>
</g>
<!-- Node1&#45;&gt;Node8 -->
<g id="edge7_Node000001_Node000008" class="edge">
<title>Node1&#45;&gt;Node8</title>
<g id="a_edge7_Node000001_Node000008"><a xlink:title=" ">
<path fill="none" stroke="#63b8ff" d="M53.02,-414.35C62.66,-438.63 89.98,-499.69 132.25,-533 133.54,-534.02 134.88,-534.99 136.25,-535.93"/>
<polygon fill="#63b8ff" stroke="#63b8ff" points="134.08,-538.72 144.46,-540.82 137.66,-532.7 134.08,-538.72"/>
</a>
</g>
</g>
<!-- Node9 -->
<g id="Node000009" class="node">
<title>Node9</title>
<g id="a_Node000009"><a xlink:href="group__lan8720__interface__driver.html#ga26d59b44e943d7f2dd5fa0aca9315b89" target="_top" xlink:title="interface smi bus deinit">
<polygon fill="white" stroke="#666666" points="261.5,-524 148,-524 148,-492 261.5,-492 261.5,-524"/>
<text xml:space="preserve" text-anchor="start" x="156" y="-510.5" font-family="Helvetica,sans-Serif" font-size="10.00">lan8720_interface_smi</text>
<text xml:space="preserve" text-anchor="middle" x="204.75" y="-498.5" font-family="Helvetica,sans-Serif" font-size="10.00">_deinit</text>
</a>
</g>
</g>
<!-- Node1&#45;&gt;Node9 -->
<g id="edge8_Node000001_Node000009" class="edge">
<title>Node1&#45;&gt;Node9</title>
<g id="a_edge8_Node000001_Node000009"><a xlink:title=" ">
<path fill="none" stroke="#63b8ff" d="M57.51,-414.43C71.4,-431.1 100.81,-463.81 132.25,-483 134.39,-484.31 136.61,-485.56 138.89,-486.76"/>
<polygon fill="#63b8ff" stroke="#63b8ff" points="137.25,-489.85 147.78,-491.01 140.26,-483.54 137.25,-489.85"/>
</a>
</g>
</g>
<!-- Node10 -->
<g id="Node000010" class="node">
<title>Node10</title>
<g id="a_Node000010"><a xlink:href="group__lan8720__interface__driver.html#ga5a1729d5eb76235bba9c23d53a7ac964" target="_top" xlink:title="interface smi bus init">
<polygon fill="white" stroke="#666666" points="270.5,-474 139,-474 139,-454 270.5,-454 270.5,-474"/>
<text xml:space="preserve" text-anchor="middle" x="204.75" y="-460.5" font-family="Helvetica,sans-Serif" font-size="10.00">lan8720_interface_smi_init</text>
</a>
</g>
</g>
<!-- Node1&#45;&gt;Node10 -->
<g id="edge9_Node000001_Node000010" class="edge">
<title>Node1&#45;&gt;Node10</title>
<g id="a_edge9_Node000001_Node000010"><a xlink:title=" ">
<path fill="none" stroke="#63b8ff" d="M67.47,-414.37C84.01,-423.4 109.2,-436.35 132.25,-445 137.32,-446.9 142.66,-448.69 148.04,-450.36"/>
<polygon fill="#63b8ff" stroke="#63b8ff" points="147.04,-453.71 157.62,-453.17 149.01,-447 147.04,-453.71"/>
</a>
</g>
</g>
<!-- Node11 -->
<g id="Node000011" class="node">
<title>Node11</title>
<g id="a_Node000011"><a xlink:href="group__lan8720__interface__driver.html#ga72c7fa662903565279c6567fb61f58fa" target="_top" xlink:title="interface smi bus read">
<polygon fill="white" stroke="#666666" points="273.5,-436 136,-436 136,-416 273.5,-416 273.5,-436"/>
<text xml:space="preserve" text-anchor="middle" x="204.75" y="-422.5" font-family="Helvetica,sans-Serif" font-size="10.00">lan8720_interface_smi_read</text>
</a>
</g>
</g>
<!-- Node1&#45;&gt;Node11 -->
<g id="edge10_Node000001_Node000011" class="edge">
<title>Node1&#45;&gt;Node11</title>
<g id="a_edge10_Node000001_Node000011"><a xlink:title=" ">
<path fill="none" stroke="#63b8ff" d="M96.36,-410.72C105.29,-411.99 114.87,-413.35 124.48,-414.72"/>
<polygon fill="#63b8ff" stroke="#63b8ff" points="123.85,-418.17 134.25,-416.11 124.84,-411.24 123.85,-418.17"/>
</a>
</g>
</g>
<!-- Node12 -->
<g id="Node000012" class="node">
<title>Node12</title>
<g id="a_Node000012"><a xlink:href="group__lan8720__interface__driver.html#gad4519b8361be297387537c6d47b8310e" target="_top" xlink:title="interface smi bus write">
<polygon fill="white" stroke="#666666" points="261.5,-398 148,-398 148,-366 261.5,-366 261.5,-398"/>
<text xml:space="preserve" text-anchor="start" x="156" y="-384.5" font-family="Helvetica,sans-Serif" font-size="10.00">lan8720_interface_smi</text>
<text xml:space="preserve" text-anchor="middle" x="204.75" y="-372.5" font-family="Helvetica,sans-Serif" font-size="10.00">_write</text>
</a>
</g>
</g>
<!-- Node1&#45;&gt;Node12 -->
<g id="edge11_Node000001_Node000012" class="edge">
<title>Node1&#45;&gt;Node12</title>
<g id="a_edge11_Node000001_Node000012"><a xlink:title=" ">
<path fill="none" stroke="#63b8ff" d="M96.36,-397.28C108.99,-395.48 122.88,-393.51 136.37,-391.59"/>
<polygon fill="#63b8ff" stroke="#63b8ff" points="136.66,-395.08 146.07,-390.21 135.67,-388.15 136.66,-395.08"/>
</a>
</g>
</g>
<!-- Node13 -->
<g id="Node000013" class="node">
<title>Node13</title>
<g id="a_Node000013"><a xlink:href="group__lan8720__base__driver.html#gaf887f3ca23c669922d3be122016dfcd8" target="_top" xlink:title="set the chip address">
<polygon fill="white" stroke="#666666" points="258.88,-348 150.62,-348 150.62,-328 258.88,-328 258.88,-348"/>
<text xml:space="preserve" text-anchor="middle" x="204.75" y="-334.5" font-family="Helvetica,sans-Serif" font-size="10.00">lan8720_set_address</text>
</a>
</g>
</g>
<!-- Node1&#45;&gt;Node13 -->
<g id="edge12_Node000001_Node000013" class="edge">
<title>Node1&#45;&gt;Node13</title>
<g id="a_edge12_Node000001_Node000013"><a xlink:title=" ">
<path fill="none" stroke="#63b8ff" d="M64.76,-393.55C81.03,-383.07 107.53,-367.08 132.25,-357 136.86,-355.12 141.71,-353.38 146.62,-351.77"/>
<polygon fill="#63b8ff" stroke="#63b8ff" points="147.42,-355.18 155.96,-348.91 145.38,-348.49 147.42,-355.18"/>
</a>
</g>
</g>
<!-- Node14 -->
<g id="Node000014" class="node">
<title>Node14</title>
<g id="a_Node000014"><a xlink:href="group__lan8720__base__driver.html#ga9e4cde5489a146fe9a7c19aa14ce3c85" target="_top" xlink:title="enable or disable auto negotiation">
<polygon fill="white" stroke="#666666" points="277.25,-310 132.25,-310 132.25,-290 277.25,-290 277.25,-310"/>
<text xml:space="preserve" text-anchor="middle" x="204.75" y="-296.5" font-family="Helvetica,sans-Serif" font-size="10.00">lan8720_set_auto_negotiation</text>
</a>
</g>
</g>
<!-- Node1&#45;&gt;Node14 -->
<g id="edge13_Node000001_Node000014" class="edge">
<title>Node1&#45;&gt;Node14</title>
<g id="a_edge13_Node000001_Node000014"><a xlink:title=" ">
<path fill="none" stroke="#63b8ff" d="M56.3,-393.62C69.3,-375.62 98.55,-338.66 132.25,-319 134.91,-317.45 137.71,-316.02 140.58,-314.7"/>
<polygon fill="#63b8ff" stroke="#63b8ff" points="141.88,-317.95 149.86,-310.99 139.28,-311.45 141.88,-317.95"/>
</a>
</g>
</g>
<!-- Node15 -->
<g id="Node000015" class="node">
<title>Node15</title>
<g id="a_Node000015"><a xlink:href="group__lan8720__base__driver.html#ga0164725de0bfb98c635ca9c3348ba169" target="_top" xlink:title="set duplex mode">
<polygon fill="white" stroke="#666666" points="270.5,-272 139,-272 139,-252 270.5,-252 270.5,-272"/>
<text xml:space="preserve" text-anchor="middle" x="204.75" y="-258.5" font-family="Helvetica,sans-Serif" font-size="10.00">lan8720_set_duplex_mode</text>
</a>
</g>
</g>
<!-- Node1&#45;&gt;Node15 -->
<g id="edge14_Node000001_Node000015" class="edge">
<title>Node1&#45;&gt;Node15</title>
<g id="a_edge14_Node000001_Node000015"><a xlink:title=" ">
<path fill="none" stroke="#63b8ff" d="M53.14,-393.56C62.86,-369.73 90.03,-311.02 132.25,-281 134.06,-279.72 135.94,-278.52 137.89,-277.4"/>
<polygon fill="#63b8ff" stroke="#63b8ff" points="139.23,-280.64 146.7,-273.13 136.18,-274.34 139.23,-280.64"/>
</a>
</g>
</g>
<!-- Node16 -->
<g id="Node000016" class="node">
<title>Node16</title>
<g id="a_Node000016"><a xlink:href="group__lan8720__base__driver.html#gafcbe5fba07697f1bd9abc72cd383be81" target="_top" xlink:title="enable or disable electrical isolation">
<polygon fill="white" stroke="#666666" points="261.12,-234 148.38,-234 148.38,-202 261.12,-202 261.12,-234"/>
<text xml:space="preserve" text-anchor="start" x="156.38" y="-220.5" font-family="Helvetica,sans-Serif" font-size="10.00">lan8720_set_electrical</text>
<text xml:space="preserve" text-anchor="middle" x="204.75" y="-208.5" font-family="Helvetica,sans-Serif" font-size="10.00">_isolation</text>
</a>
</g>
</g>
<!-- Node1&#45;&gt;Node16 -->
<g id="edge15_Node000001_Node000016" class="edge">
<title>Node1&#45;&gt;Node16</title>
<g id="a_edge15_Node000001_Node000016"><a xlink:title=" ">
<path fill="none" stroke="#63b8ff" d="M51.59,-393.67C58.85,-365.38 82.86,-285.91 132.25,-243 134.15,-241.35 136.16,-239.81 138.25,-238.37"/>
<polygon fill="#63b8ff" stroke="#63b8ff" points="139.78,-241.54 146.62,-233.44 136.23,-235.5 139.78,-241.54"/>
</a>
</g>
</g>
<!-- Node17 -->
<g id="Node000017" class="node">
<title>Node17</title>
<g id="a_Node000017"><a xlink:href="group__lan8720__base__driver.html#ga35517fed2affd2cd0da156cfc9837971" target="_top" xlink:title="enable or disable loop back">
<polygon fill="white" stroke="#666666" points="263.75,-184 145.75,-184 145.75,-164 263.75,-164 263.75,-184"/>
<text xml:space="preserve" text-anchor="middle" x="204.75" y="-170.5" font-family="Helvetica,sans-Serif" font-size="10.00">lan8720_set_loop_back</text>
</a>
</g>
</g>
<!-- Node1&#45;&gt;Node17 -->
<g id="edge16_Node000001_Node000017" class="edge">
<title>Node1&#45;&gt;Node17</title>
<g id="a_edge16_Node000001_Node000017"><a xlink:title=" ">
<path fill="none" stroke="#63b8ff" d="M49.97,-393.83C53.37,-359.86 69.04,-249.3 132.25,-193 133.36,-192.01 134.51,-191.08 135.7,-190.19"/>
<polygon fill="#63b8ff" stroke="#63b8ff" points="137.44,-193.23 144.19,-185.07 133.82,-187.24 137.44,-193.23"/>
</a>
</g>
</g>
<!-- Node18 -->
<g id="Node000018" class="node">
<title>Node18</title>
<g id="a_Node000018"><a xlink:href="group__lan8720__advance__driver.html#ga7b33e7e3fbdeb3c6c268dca22470351e" target="_top" xlink:title="set phy address">
<polygon fill="white" stroke="#666666" points="269.38,-146 140.12,-146 140.12,-126 269.38,-126 269.38,-146"/>
<text xml:space="preserve" text-anchor="middle" x="204.75" y="-132.5" font-family="Helvetica,sans-Serif" font-size="10.00">lan8720_set_phy_address</text>
</a>
</g>
</g>
<!-- Node1&#45;&gt;Node18 -->
<g id="edge17_Node000001_Node000018" class="edge">
<title>Node1&#45;&gt;Node18</title>
<g id="a_edge17_Node000001_Node000018"><a xlink:title=" ">
<path fill="none" stroke="#63b8ff" d="M49.29,-393.67C50.47,-355.76 59.84,-223.02 132.25,-155 133.16,-154.14 134.11,-153.32 135.09,-152.54"/>
<polygon fill="#63b8ff" stroke="#63b8ff" points="136.81,-155.59 143.32,-147.24 133.02,-149.71 136.81,-155.59"/>
</a>
</g>
</g>
<!-- Node19 -->
<g id="Node000019" class="node">
<title>Node19</title>
<g id="a_Node000019"><a xlink:href="group__lan8720__base__driver.html#gad69f3ba14f8bc3931b02290d8a7c37a1" target="_top" xlink:title="enable or disable power down">
<polygon fill="white" stroke="#666666" points="269,-108 140.5,-108 140.5,-88 269,-88 269,-108"/>
<text xml:space="preserve" text-anchor="middle" x="204.75" y="-94.5" font-family="Helvetica,sans-Serif" font-size="10.00">lan8720_set_power_down</text>
</a>
</g>
</g>
<!-- Node1&#45;&gt;Node19 -->
<g id="edge18_Node000001_Node000019" class="edge">
<title>Node1&#45;&gt;Node19</title>
<g id="a_edge18_Node000001_Node000019"><a xlink:title=" ">
<path fill="none" stroke="#63b8ff" d="M48.76,-393.59C47.9,-352.1 50.48,-196.98 132.25,-117 133.01,-116.25 133.8,-115.54 134.61,-114.84"/>
<polygon fill="#63b8ff" stroke="#63b8ff" points="136.51,-117.79 142.84,-109.29 132.6,-111.98 136.51,-117.79"/>
</a>
</g>
</g>
<!-- Node20 -->
<g id="Node000020" class="node">
<title>Node20</title>
<g id="a_Node000020"><a xlink:href="group__lan8720__base__driver.html#ga7760ee0f13e42c84743b1ab113f35d91" target="_top" xlink:title="enable or disable restart auto negotiate">
<polygon fill="white" stroke="#666666" points="255.5,-70 154,-70 154,-38 255.5,-38 255.5,-70"/>
<text xml:space="preserve" text-anchor="start" x="162" y="-56.5" font-family="Helvetica,sans-Serif" font-size="10.00">lan8720_set_restart</text>
<text xml:space="preserve" text-anchor="middle" x="204.75" y="-44.5" font-family="Helvetica,sans-Serif" font-size="10.00">_auto_negotiate</text>
</a>
</g>
</g>
<!-- Node1&#45;&gt;Node20 -->
<g id="edge19_Node000001_Node000020" class="edge">
<title>Node1&#45;&gt;Node20</title>
<g id="a_edge19_Node000001_Node000020"><a xlink:title=" ">
<path fill="none" stroke="#63b8ff" d="M50.45,-393.65C57.04,-343.66 87.76,-127.49 132.25,-79 135.64,-75.3 139.61,-72.15 143.91,-69.47"/>
<polygon fill="#63b8ff" stroke="#63b8ff" points="145.18,-72.75 152.41,-65.01 141.93,-66.55 145.18,-72.75"/>
</a>
</g>
</g>
<!-- Node21 -->
<g id="Node000021" class="node">
<title>Node21</title>
<g id="a_Node000021"><a xlink:href="group__lan8720__base__driver.html#ga3fa28a6f9cf19862b2bf1a464fdfd4f6" target="_top" xlink:title="set speed select">
<polygon fill="white" stroke="#666666" points="270.5,-20 139,-20 139,0 270.5,0 270.5,-20"/>
<text xml:space="preserve" text-anchor="middle" x="204.75" y="-6.5" font-family="Helvetica,sans-Serif" font-size="10.00">lan8720_set_speed_select</text>
</a>
</g>
</g>
<!-- Node1&#45;&gt;Node21 -->
<g id="edge20_Node000001_Node000021" class="edge">
<title>Node1&#45;&gt;Node21</title>
<g id="a_edge20_Node000001_Node000021"><a xlink:title=" ">
<path fill="none" stroke="#63b8ff" d="M49.97,-393.85C54.69,-339.57 79.51,-83.98 132.25,-29 132.97,-28.25 133.72,-27.53 134.48,-26.83"/>
<polygon fill="#63b8ff" stroke="#63b8ff" points="136.18,-29.93 142.29,-21.27 132.11,-24.23 136.18,-29.93"/>
</a>
</g>
</g>
</g>
</svg>
