<?xml version="1.0" encoding="UTF-8" standalone="no"?>
<!DOCTYPE svg PUBLIC "-//W3C//DTD SVG 1.1//EN"
 "http://www.w3.org/Graphics/SVG/1.1/DTD/svg11.dtd">
<!-- Generated by graphviz version 13.1.0 (20250701.0955)
 -->
<!-- Title: lan8720_basic_auto_negotiation Pages: 1 -->
<svg width="318pt" height="142pt"
 viewBox="0.00 0.00 318.00 142.00" xmlns="http://www.w3.org/2000/svg" xmlns:xlink="http://www.w3.org/1999/xlink">
<g id="graph0" class="graph" transform="scale(1 1) rotate(0) translate(4 138)">
<title>lan8720_basic_auto_negotiation</title>
<!-- Node1 -->
<g id="Node000001" class="node">
<title>Node1</title>
<g id="a_Node000001"><a xlink:title="basic example auto negotiation">
<polygon fill="#999999" stroke="#666666" points="102.25,-83 0,-83 0,-51 102.25,-51 102.25,-83"/>
<text xml:space="preserve" text-anchor="start" x="8" y="-69.5" font-family="Helvetica,sans-Serif" font-size="10.00">lan8720_basic_auto</text>
<text xml:space="preserve" text-anchor="middle" x="51.12" y="-57.5" font-family="Helvetica,sans-Serif" font-size="10.00">_negotiation</text>
</a>
</g>
</g>
<!-- Node2 -->
<g id="Node000002" class="node">
<title>Node2</title>
<g id="a_Node000002"><a xlink:href="group__lan8720__advance__driver.html#ga16c6d6141b4f71dda6bc076475dc906b" target="_top" xlink:title="get auto negotiation done status">
<polygon fill="white" stroke="#666666" points="309.5,-134 138.25,-134 138.25,-114 309.5,-114 309.5,-134"/>
<text xml:space="preserve" text-anchor="middle" x="223.88" y="-120.5" font-family="Helvetica,sans-Serif" font-size="10.00">lan8720_get_auto_negotiation_done</text>
</a>
</g>
</g>
<!-- Node1&#45;&gt;Node2 -->
<g id="edge1_Node000001_Node000002" class="edge">
<title>Node1&#45;&gt;Node2</title>
<g id="a_edge1_Node000001_Node000002"><a xlink:title=" ">
<path fill="none" stroke="#63b8ff" d="M85.07,-83.34C100.87,-90.71 120.24,-99.07 138.25,-105 144.73,-107.13 151.56,-109.11 158.42,-110.91"/>
<polygon fill="#63b8ff" stroke="#63b8ff" points="157.16,-114.2 167.71,-113.23 158.86,-107.41 157.16,-114.2"/>
</a>
</g>
</g>
<!-- Node3 -->
<g id="Node000003" class="node">
<title>Node3</title>
<g id="a_Node000003"><a xlink:href="group__lan8720__advance__driver.html#gab498a5391232eeec60edc1b1de734779" target="_top" xlink:title="get speed indication">
<polygon fill="white" stroke="#666666" points="297.12,-96 150.62,-96 150.62,-76 297.12,-76 297.12,-96"/>
<text xml:space="preserve" text-anchor="middle" x="223.88" y="-82.5" font-family="Helvetica,sans-Serif" font-size="10.00">lan8720_get_speed_indication</text>
</a>
</g>
</g>
<!-- Node1&#45;&gt;Node3 -->
<g id="edge2_Node000001_Node000003" class="edge">
<title>Node1&#45;&gt;Node3</title>
<g id="a_edge2_Node000001_Node000003"><a xlink:title=" ">
<path fill="none" stroke="#63b8ff" d="M102.43,-72.6C113.88,-73.87 126.35,-75.26 138.78,-76.64"/>
<polygon fill="#63b8ff" stroke="#63b8ff" points="138.32,-80.11 148.65,-77.74 139.1,-73.16 138.32,-80.11"/>
</a>
</g>
</g>
<!-- Node4 -->
<g id="Node000004" class="node">
<title>Node4</title>
<g id="a_Node000004"><a xlink:href="group__lan8720__interface__driver.html#ga957fd18955787b963cf84b1d13ecdb23" target="_top" xlink:title="interface delay ms">
<polygon fill="white" stroke="#666666" points="293.75,-58 154,-58 154,-38 293.75,-38 293.75,-58"/>
<text xml:space="preserve" text-anchor="middle" x="223.88" y="-44.5" font-family="Helvetica,sans-Serif" font-size="10.00">lan8720_interface_delay_ms</text>
</a>
</g>
</g>
<!-- Node1&#45;&gt;Node4 -->
<g id="edge3_Node000001_Node000004" class="edge">
<title>Node1&#45;&gt;Node4</title>
<g id="a_edge3_Node000001_Node000004"><a xlink:title=" ">
<path fill="none" stroke="#63b8ff" d="M102.43,-61.4C114.96,-60.01 128.71,-58.48 142.29,-56.97"/>
<polygon fill="#63b8ff" stroke="#63b8ff" points="142.58,-60.46 152.13,-55.87 141.8,-53.5 142.58,-60.46"/>
</a>
</g>
</g>
<!-- Node5 -->
<g id="Node000005" class="node">
<title>Node5</title>
<g id="a_Node000005"><a xlink:href="group__lan8720__base__driver.html#ga9e4cde5489a146fe9a7c19aa14ce3c85" target="_top" xlink:title="enable or disable auto negotiation">
<polygon fill="white" stroke="#666666" points="296.38,-20 151.38,-20 151.38,0 296.38,0 296.38,-20"/>
<text xml:space="preserve" text-anchor="middle" x="223.88" y="-6.5" font-family="Helvetica,sans-Serif" font-size="10.00">lan8720_set_auto_negotiation</text>
</a>
</g>
</g>
<!-- Node1&#45;&gt;Node5 -->
<g id="edge4_Node000001_Node000005" class="edge">
<title>Node1&#45;&gt;Node5</title>
<g id="a_edge4_Node000001_Node000005"><a xlink:title=" ">
<path fill="none" stroke="#63b8ff" d="M85.07,-50.66C100.87,-43.29 120.24,-34.93 138.25,-29 144.73,-26.87 151.56,-24.89 158.42,-23.09"/>
<polygon fill="#63b8ff" stroke="#63b8ff" points="158.86,-26.59 167.71,-20.77 157.16,-19.8 158.86,-26.59"/>
</a>
</g>
</g>
</g>
</svg>
